<?xml version="1.0" encoding="UTF-8" standalone="no"?><!DOCTYPE svg PUBLIC "-//W3C//DTD SVG 1.1//EN" "http://www.w3.org/Graphics/SVG/1.1/DTD/svg11.dtd"><svg width="100%" height="100%" viewBox="0 0 32 28" version="1.1" xmlns="http://www.w3.org/2000/svg" xmlns:xlink="http://www.w3.org/1999/xlink" xml:space="preserve" xmlns:serif="http://www.serif.com/" style="fill-rule:evenodd;clip-rule:evenodd;stroke-linejoin:round;stroke-miterlimit:2;"><path d="M21.41,0.002c-0.126,-0 -0.253,0.031 -0.369,0.098c-0.353,0.204 -0.473,0.655 -0.271,1.009l4.43,7.671c0.204,0.353 0.655,0.475 1.007,0.271c0.117,-0.069 0.208,-0.161 0.269,-0.271l4.43,-7.673c0.064,-0.109 0.099,-0.233 0.099,-0.369c-0,-0.408 -0.331,-0.738 -0.739,-0.738l-8.86,-0l0.004,0.002Z" style="fill:#ec6313;fill-rule:nonzero;"/><path d="M16.145,26.682c-0.075,0.131 -0.187,0.232 -0.317,0.295c-0.213,0.104 -0.471,0.102 -0.692,-0.024c-0.117,-0.067 -0.208,-0.164 -0.271,-0.271l-14.764,-25.573c-0.064,-0.109 -0.101,-0.234 -0.101,-0.369c0,-0.408 0.33,-0.739 0.739,-0.739l10.334,0c0.127,0 0.254,0.032 0.37,0.099c0.116,0.067 0.207,0.161 0.27,0.271l9.597,16.621c0.063,0.11 0.1,0.236 0.1,0.37c0,0.133 -0.037,0.259 -0.1,0.369l-5.167,8.951l0.002,-0Z" style="fill:#ec6313;fill-rule:nonzero;"/></svg>