<?xml version="1.0" encoding="UTF-8" standalone="no"?>
<!DOCTYPE svg PUBLIC "-//W3C//DTD SVG 1.1//EN" "http://www.w3.org/Graphics/SVG/1.1/DTD/svg11.dtd">
<svg width="100%" height="100%" viewBox="0 0 42 37" version="1.1" xmlns="http://www.w3.org/2000/svg" xmlns:xlink="http://www.w3.org/1999/xlink" xml:space="preserve" xmlns:serif="http://www.serif.com/" style="fill-rule:evenodd;clip-rule:evenodd;stroke-linejoin:round;stroke-miterlimit:2;">
    <g transform="matrix(1,0,0,1,-153.66,-0.964844)">
        <path d="M182.207,0.967C182.038,0.967 181.87,1.009 181.714,1.098C181.244,1.371 181.084,1.972 181.353,2.444L187.26,12.672C187.532,13.142 188.133,13.305 188.603,13.033C188.759,12.942 188.88,12.818 188.962,12.672L194.868,2.442C194.953,2.296 195,2.13 195,1.949C195,1.405 194.559,0.965 194.015,0.965L182.202,0.965L182.207,0.967Z" style="fill:url(#_Linear1);fill-rule:nonzero;"/>
    </g>
    <g transform="matrix(1,0,0,1,-153.66,-0.964844)">
        <path d="M175.187,36.541C175.086,36.716 174.937,36.85 174.764,36.934C174.48,37.072 174.136,37.07 173.841,36.902C173.686,36.813 173.564,36.684 173.48,36.541L153.794,2.443C153.71,2.298 153.66,2.132 153.66,1.951C153.66,1.407 154.1,0.967 154.645,0.967L168.424,0.967C168.593,0.967 168.763,1.009 168.917,1.098C169.072,1.187 169.194,1.313 169.278,1.459L182.073,23.622C182.157,23.767 182.207,23.936 182.207,24.114C182.207,24.292 182.157,24.46 182.073,24.606L175.184,36.541L175.187,36.541Z" style="fill:url(#_Linear2);fill-rule:nonzero;"/>
    </g>
    <g transform="matrix(1,0,0,1,-153.66,-0.964844)">
        <path d="M182.076,23.622C182.16,23.767 182.209,23.936 182.209,24.114C182.209,24.292 182.16,24.46 182.076,24.606L175.187,36.541C175.086,36.716 174.937,36.85 174.764,36.934C174.48,37.072 174.136,37.07 173.841,36.902C173.686,36.813 173.564,36.684 173.48,36.541L153.794,2.443C153.71,2.298 153.66,2.132 153.66,1.951C153.66,1.407 154.1,0.967 154.645,0.967C154.645,0.967 170.139,26.375 182.073,23.622L182.076,23.622Z" style="fill:url(#_Linear3);fill-rule:nonzero;"/>
    </g>
    <g transform="matrix(1,0,0,1,-153.66,-0.964844)">
        <path d="M178.63,30.574L175.187,36.54C175.086,36.716 174.937,36.85 174.764,36.934C174.48,37.072 174.136,37.07 173.841,36.902C173.686,36.813 173.564,36.684 173.48,36.54L153.794,2.443C153.71,2.297 153.66,2.132 153.66,1.951C153.66,1.951 171.865,31.772 178.628,30.574L178.63,30.574Z" style="fill:url(#_Linear4);fill-rule:nonzero;"/>
    </g>
    <defs>
        <linearGradient id="_Linear1" x1="0" y1="0" x2="1" y2="0" gradientUnits="userSpaceOnUse" gradientTransform="matrix(-20.455,7.1459,-7.1459,-20.455,198.148,2.52809)"><stop offset="0" style="stop-color:rgb(233,72,10);stop-opacity:1"/><stop offset="0.01" style="stop-color:rgb(233,72,10);stop-opacity:1"/><stop offset="0.08" style="stop-color:rgb(234,83,14);stop-opacity:1"/><stop offset="0.37" style="stop-color:rgb(240,131,31);stop-opacity:1"/><stop offset="0.64" style="stop-color:rgb(243,158,50);stop-opacity:1"/><stop offset="0.82" style="stop-color:rgb(246,173,60);stop-opacity:1"/><stop offset="1" style="stop-color:rgb(246,173,60);stop-opacity:1"/></linearGradient>
        <linearGradient id="_Linear2" x1="0" y1="0" x2="1" y2="0" gradientUnits="userSpaceOnUse" gradientTransform="matrix(-35.433,-25.5907,25.5907,-35.433,185.385,29.1151)"><stop offset="0" style="stop-color:rgb(233,72,10);stop-opacity:1"/><stop offset="0.15" style="stop-color:rgb(233,72,10);stop-opacity:1"/><stop offset="0.21" style="stop-color:rgb(234,83,14);stop-opacity:1"/><stop offset="0.44" style="stop-color:rgb(240,131,31);stop-opacity:1"/><stop offset="0.73" style="stop-color:rgb(243,158,50);stop-opacity:1"/><stop offset="0.93" style="stop-color:rgb(246,173,60);stop-opacity:1"/><stop offset="1" style="stop-color:rgb(246,173,60);stop-opacity:1"/></linearGradient>
        <linearGradient id="_Linear3" x1="0" y1="0" x2="1" y2="0" gradientUnits="userSpaceOnUse" gradientTransform="matrix(-23.82,-18.0119,18.0119,-23.82,181.596,32.061)"><stop offset="0" style="stop-color:rgb(233,72,10);stop-opacity:1"/><stop offset="0.1" style="stop-color:rgb(233,72,10);stop-opacity:1"/><stop offset="0.25" style="stop-color:rgb(235,93,17);stop-opacity:1"/><stop offset="0.52" style="stop-color:rgb(240,131,31);stop-opacity:1"/><stop offset="0.63" style="stop-color:rgb(242,151,45);stop-opacity:1"/><stop offset="0.75" style="stop-color:rgb(245,167,56);stop-opacity:1"/><stop offset="0.85" style="stop-color:rgb(246,173,60);stop-opacity:1"/><stop offset="1" style="stop-color:rgb(246,173,60);stop-opacity:1"/></linearGradient>
        <linearGradient id="_Linear4" x1="0" y1="0" x2="1" y2="0" gradientUnits="userSpaceOnUse" gradientTransform="matrix(-29.43,-43.2094,43.2094,-29.43,181.737,41.9005)"><stop offset="0" style="stop-color:rgb(233,72,10);stop-opacity:1"/><stop offset="0.21" style="stop-color:rgb(233,72,10);stop-opacity:1"/><stop offset="0.26" style="stop-color:rgb(234,83,14);stop-opacity:1"/><stop offset="0.51" style="stop-color:rgb(240,131,31);stop-opacity:1"/><stop offset="0.8" style="stop-color:rgb(243,158,50);stop-opacity:1"/><stop offset="1" style="stop-color:rgb(246,173,60);stop-opacity:1"/></linearGradient>
    </defs>
</svg>
